<svg width="946" height="325" xmlns="http://www.w3.org/2000/svg" data-name="Camada 1">

 <title>fernando</title>
 <g>
  <title>Layer 1</title>
  <path id="svg_1" fill="#fff" d="m0,0.00001l0,324.68l945.7,0l0,-324.68l-945.7,0zm184.65,116.42l-62.65,40.73l0,0.89l62.65,40.73l0,23.68l-84.12,-55.78l0,-18.1l84.12,-55.79l0,23.64zm141.45,-8.41l-66.86,0l0,40.95l56.89,0l0,21.69l-56.89,0l0,60.44l-25.67,0l0,-144.78l92.53,0l0,21.7zm132.81,0l-66.85,0l0,40.95l56.89,0l0,21.69l-56.89,0l0,60.44l-25.68,0l0,-144.78l92.53,0l0,21.7zm132.81,0l-66.87,0l0,40.95l56.89,0l0,21.69l-56.89,0l0,60.44l-25.66,0l0,-144.78l92.53,0l0,21.7zm54.9,158.49l-21.92,0l72.83,-192.58l21.92,0l-72.83,192.58zm198.55,-99.83l-84.11,55.78l0,-23.68l62.64,-40.73l0,-0.89l-62.64,-40.73l0,-23.69l84.11,55.84l0,18.1z" class="cls-1"/>
 </g>
</svg>